<svg width="47" height="47" viewBox="0 0 47 47" fill="none" xmlns="http://www.w3.org/2000/svg">
<rect width="47" height="47" fill="white"/>
<path d="M23.5002 25.4583C24.5817 25.4583 25.4585 24.5815 25.4585 23.5C25.4585 22.4184 24.5817 21.5417 23.5002 21.5417C22.4186 21.5417 21.5418 22.4184 21.5418 23.5C21.5418 24.5815 22.4186 25.4583 23.5002 25.4583Z" stroke="#CBCCCD" stroke-width="3.91667" stroke-linecap="round" stroke-linejoin="round"/>
<path d="M37.2085 25.4583C38.2901 25.4583 39.1668 24.5815 39.1668 23.5C39.1668 22.4184 38.2901 21.5417 37.2085 21.5417C36.1269 21.5417 35.2502 22.4184 35.2502 23.5C35.2502 24.5815 36.1269 25.4583 37.2085 25.4583Z" stroke="#CBCCCD" stroke-width="3.91667" stroke-linecap="round" stroke-linejoin="round"/>
<path d="M9.79183 25.4583C10.8734 25.4583 11.7502 24.5815 11.7502 23.5C11.7502 22.4184 10.8734 21.5417 9.79183 21.5417C8.71027 21.5417 7.8335 22.4184 7.8335 23.5C7.8335 24.5815 8.71027 25.4583 9.79183 25.4583Z" stroke="#CBCCCD" stroke-width="3.91667" stroke-linecap="round" stroke-linejoin="round"/>
</svg>
