<svg width="24" height="24" viewBox="0 0 24 24" fill="none" xmlns="http://www.w3.org/2000/svg">
<path d="M13.4489 14.9801L8.87891 15.9501L9.84891 11.3801C9.91891 11.0501 10.0789 10.7501 10.3189 10.5101L16.7189 4.1101C17.3989 3.4301 18.4989 3.4301 19.1789 4.1101L20.7089 5.6401C21.3889 6.3201 21.3889 7.4201 20.7089 8.1001L14.3089 14.5001C14.0789 14.7401 13.7789 14.9101 13.4489 14.9801Z" stroke="black" stroke-width="1.2" stroke-miterlimit="10" stroke-linecap="round" stroke-linejoin="round"/>
<path d="M18.6396 10.2102V19.2602C18.6396 20.3302 17.7696 21.1902 16.7096 21.1902H5.52961C4.45961 21.1902 3.59961 20.3202 3.59961 19.2602V8.09016C3.59961 7.02016 4.46961 6.16016 5.52961 6.16016H14.5496" stroke="black" stroke-width="1.2" stroke-miterlimit="10" stroke-linecap="round" stroke-linejoin="round"/>
</svg>
