<svg width="20" height="16" viewBox="0 0 20 16" fill="none" xmlns="http://www.w3.org/2000/svg">
<path d="M16.4148 14.83H3.08513C1.80081 14.83 0.75 13.7539 0.75 12.4163V3.16371C0.75 1.83617 1.79108 0.75 3.08513 0.75H16.4148C17.6992 0.75 18.75 1.82611 18.75 3.16371V12.4163C18.75 13.7539 17.7089 14.83 16.4148 14.83Z" fill="white" fill-opacity="0.67" stroke="#141718" stroke-width="1.5" stroke-linecap="round" stroke-linejoin="round"/>
<path d="M17.7476 1.52405L11.0633 8.38302C10.3141 9.15742 9.18542 9.15742 8.4265 8.38302L1.74219 1.52405" fill="white" fill-opacity="0.67"/>
<path d="M17.7476 1.52405L11.0633 8.38302C10.3141 9.15742 9.18542 9.15742 8.4265 8.38302L1.74219 1.52405" stroke="#141718" stroke-width="1.5" stroke-linecap="round" stroke-linejoin="round"/>
<path d="M11.8223 7.70935L17.7477 13.6531" stroke="#141718" stroke-width="1.5" stroke-linecap="round" stroke-linejoin="round"/>
<path d="M1.75195 13.6534L7.74546 7.79004" stroke="#141718" stroke-width="1.5" stroke-linecap="round" stroke-linejoin="round"/>
</svg>
