<svg width="33" height="33" viewBox="0 0 33 33" fill="none" xmlns="http://www.w3.org/2000/svg">
<path d="M16.3322 30.3316C24.0637 30.3316 30.3313 24.0639 30.3313 16.3324C30.3313 8.60088 24.0637 2.33325 16.3322 2.33325C8.60064 2.33325 2.33301 8.60088 2.33301 16.3324C2.33301 24.0639 8.60064 30.3316 16.3322 30.3316Z" stroke="#141718" stroke-width="3.06231" stroke-linecap="round" stroke-linejoin="round"/>
<path d="M12.3721 12.2493C12.6921 11.3396 13.3236 10.5726 14.155 10.0841C14.9863 9.59548 15.9637 9.41688 16.9141 9.5799C17.8644 9.74291 18.7265 10.237 19.3474 10.9747C19.9684 11.7124 20.3083 12.646 20.3069 13.6103C20.3069 16.3324 16.2238 17.6934 16.2238 17.6934" stroke="#141718" stroke-width="3.06231" stroke-linecap="round" stroke-linejoin="round"/>
<path d="M16.332 23.1376H16.3449" stroke="#141718" stroke-width="3.06231" stroke-linecap="round" stroke-linejoin="round"/>
</svg>
