<svg width="25" height="25" viewBox="0 0 25 25" fill="none" xmlns="http://www.w3.org/2000/svg">
<path fill-rule="evenodd" clip-rule="evenodd" d="M12.3684 1.8553C6.57133 1.8553 1.85526 6.57137 1.85526 12.3684C1.85526 18.1655 6.57133 22.8816 12.3684 22.8816C18.1655 22.8816 22.8815 18.1655 22.8815 12.3684C22.8815 6.57137 18.1655 1.8553 12.3684 1.8553ZM12.3684 24.7368C5.54846 24.7368 0 19.1883 0 12.3684C0 5.54846 5.54846 0 12.3684 0C19.1883 0 24.7368 5.54846 24.7368 12.3684C24.7368 19.1883 19.1883 24.7368 12.3684 24.7368Z" fill="#9E9E9E"/>
<path fill-rule="evenodd" clip-rule="evenodd" d="M16.612 16.9354C16.45 16.9354 16.2867 16.8934 16.1371 16.8055L11.4742 14.0239C11.1946 13.8557 11.0215 13.5527 11.0215 13.2261V7.22994C11.0215 6.71789 11.4371 6.30231 11.9491 6.30231C12.4624 6.30231 12.8767 6.71789 12.8767 7.22994V12.6992L17.0882 15.21C17.5273 15.4735 17.672 16.0424 17.4098 16.4827C17.2354 16.7734 16.9274 16.9354 16.612 16.9354Z" fill="#9E9E9E"/>
</svg>
