<svg width="29" height="29" viewBox="0 0 29 29" fill="none" xmlns="http://www.w3.org/2000/svg">
<path fill-rule="evenodd" clip-rule="evenodd" d="M3.59589 10.9396C2.83647 11.6231 2.40283 12.5968 2.40283 13.6185V22.8254C2.40283 24.8159 4.0164 26.4294 6.00684 26.4294H22.8255C24.816 26.4294 26.4295 24.8159 26.4295 22.8254V13.6185C26.4295 12.5968 25.9958 11.6231 25.2365 10.9396L16.8271 3.37124C15.4565 2.13769 13.3758 2.13769 12.0052 3.37125L3.59589 10.9396ZM13.2148 15.6174C11.8879 15.6174 10.8122 16.6931 10.8122 18.0201V22.8254C10.8122 23.4889 11.35 24.0267 12.0135 24.0267H16.8188C17.4823 24.0267 18.0202 23.4889 18.0202 22.8254V18.0201C18.0202 16.6931 16.9445 15.6174 15.6175 15.6174H13.2148Z" fill="#141416"/>
</svg>
