<svg width="19" height="21" viewBox="0 0 19 21" fill="none" xmlns="http://www.w3.org/2000/svg">
<path d="M0.78125 16.7604V12.6042C0.78125 10.7917 2.25 9.3125 4.07292 9.3125H14.6667C16.4792 9.3125 17.9583 10.7813 17.9583 12.6042V16.7604C17.9583 18.5729 16.4896 20.0521 14.6667 20.0521H4.07292C2.25 20.0521 0.78125 18.5833 0.78125 16.7604Z" fill="white" fill-opacity="0.67" stroke="#141718" stroke-width="1.5625" stroke-linecap="round" stroke-linejoin="round"/>
<path d="M4 9.32292V6.14584C4 3.1875 6.40624 0.78125 9.36458 0.78125C12.3229 0.78125 14.7292 3.1875 14.7292 6.14584V9.32292H4Z" stroke="#141718" stroke-width="1.5625" stroke-linecap="round" stroke-linejoin="round"/>
<path d="M9.36426 16.8335V14.146" stroke="#141718" stroke-width="1.5625" stroke-linecap="round" stroke-linejoin="round"/>
<path d="M9.36491 14.6876C9.95746 14.6876 10.4378 14.2072 10.4378 13.6147C10.4378 13.0221 9.95746 12.5417 9.36491 12.5417C8.77235 12.5417 8.29199 13.0221 8.29199 13.6147C8.29199 14.2072 8.77235 14.6876 9.36491 14.6876Z" fill="white" fill-opacity="0.67" stroke="#141718" stroke-width="1.5625" stroke-linecap="round" stroke-linejoin="round"/>
</svg>
