<svg width="32" height="33" viewBox="0 0 32 33" fill="none" xmlns="http://www.w3.org/2000/svg">
<path fill-rule="evenodd" clip-rule="evenodd" d="M0 16.3322C0 15.6613 0.543886 15.1174 1.2148 15.1174H22.2714C22.9423 15.1174 23.4862 15.6613 23.4862 16.3322C23.4862 17.0032 22.9423 17.547 22.2714 17.547H1.2148C0.543886 17.547 0 17.0032 0 16.3322Z" fill="#141718"/>
<path fill-rule="evenodd" clip-rule="evenodd" d="M14.933 7.37436C15.4074 6.89995 16.1765 6.89995 16.6509 7.37436L24.6351 15.3585C25.1728 15.8962 25.1728 16.7679 24.6351 17.3056L16.6509 25.2897C16.1765 25.7641 15.4074 25.7641 14.933 25.2897C14.4585 24.8153 14.4585 24.0461 14.933 23.5717L22.1726 16.332L14.933 9.09235C14.4585 8.61794 14.4585 7.84877 14.933 7.37436Z" fill="#141718"/>
<path fill-rule="evenodd" clip-rule="evenodd" d="M21.5964 1.2148C21.5964 0.543886 22.1403 0 22.8112 0H30.208C30.9684 0 31.5848 0.616407 31.5848 1.37678V31.2879C31.5848 32.0483 30.9684 32.6647 30.208 32.6647H21.7314C21.0605 32.6647 20.5166 32.1208 20.5166 31.4499C20.5166 30.779 21.0605 30.2351 21.7314 30.2351H29.1552V2.42961H22.8112C22.1403 2.42961 21.5964 1.88572 21.5964 1.2148Z" fill="#141718"/>
</svg>
