<svg width="29" height="29" viewBox="0 0 29 29" fill="none" xmlns="http://www.w3.org/2000/svg">
<path fill-rule="evenodd" clip-rule="evenodd" d="M21.0205 20.881C17.9179 20.881 17.9179 21.1157 17.9179 23.9836V24.0118C17.9179 25.2607 17.9179 26.1633 18.2236 26.5446C18.5226 26.9147 19.4105 27.0862 21.0205 27.0862C22.6304 27.0862 23.5183 26.9136 23.8173 26.5435C24.123 26.1633 24.123 25.2607 24.123 24.0107C24.123 21.1157 24.123 20.881 21.0205 20.881ZM21.0205 28.7786C19.1183 28.7786 17.6911 28.5789 16.907 27.6053C16.2256 26.7603 16.2256 25.6072 16.2256 24.012L17.0717 23.9837H16.2256C16.2256 20.7458 16.4298 19.1889 21.0205 19.1889C25.6111 19.1889 25.8153 20.7458 25.8153 23.9837C25.8153 25.6061 25.8153 26.7603 25.1339 27.6053C24.3498 28.5789 22.9226 28.7786 21.0205 28.7786Z" fill="#9E9E9E"/>
<path fill-rule="evenodd" clip-rule="evenodd" d="M8.6103 20.881C5.50773 20.881 5.50773 21.1157 5.50773 23.9836V24.0118C5.50773 25.2607 5.50773 26.1633 5.81348 26.5446C6.11245 26.9147 7.00035 27.0862 8.6103 27.0862C10.2202 27.0862 11.1081 26.9136 11.4071 26.5435C11.7129 26.1633 11.7129 25.2607 11.7129 24.0107C11.7129 21.1157 11.7129 20.881 8.6103 20.881ZM8.6103 28.7786C6.70815 28.7786 5.28097 28.5789 4.49687 27.6053C3.81543 26.7603 3.81543 25.6072 3.81543 24.012L4.66158 23.9837H3.81543C3.81543 20.7458 4.01964 19.1889 8.6103 19.1889C13.201 19.1889 13.4052 20.7458 13.4052 23.9837C13.4052 25.6061 13.4052 26.7603 12.7237 27.6053C11.9396 28.5789 10.5125 28.7786 8.6103 28.7786Z" fill="#9E9E9E"/>
<path fill-rule="evenodd" clip-rule="evenodd" d="M21.0205 8.47084C17.9179 8.47084 17.9179 8.70551 17.9179 11.5734V11.6016C17.9179 12.8505 17.9179 13.7531 18.2236 14.1344C18.5226 14.5045 19.4105 14.676 21.0205 14.676C22.6304 14.676 23.5183 14.5034 23.8173 14.1333C24.123 13.7531 24.123 12.8505 24.123 11.6005C24.123 8.70551 24.123 8.47084 21.0205 8.47084ZM21.0205 16.3683C19.1183 16.3683 17.6911 16.1686 16.907 15.195C16.2256 14.3499 16.2256 13.1969 16.2256 11.6016L17.0717 11.5734H16.2256C16.2256 8.33549 16.4298 6.77856 21.0205 6.77856C25.6111 6.77856 25.8153 8.33549 25.8153 11.5734C25.8153 13.1958 25.8153 14.3499 25.1339 15.195C24.3498 16.1686 22.9226 16.3683 21.0205 16.3683Z" fill="#9E9E9E"/>
<path fill-rule="evenodd" clip-rule="evenodd" d="M8.6103 8.47084C5.50773 8.47084 5.50773 8.70551 5.50773 11.5734V11.6016C5.50773 12.8505 5.50773 13.7531 5.81348 14.1344C6.11245 14.5045 7.00035 14.676 8.6103 14.676C10.2202 14.676 11.1081 14.5034 11.4071 14.1333C11.7129 13.7531 11.7129 12.8505 11.7129 11.6005C11.7129 8.70551 11.7129 8.47084 8.6103 8.47084ZM8.6103 16.3683C6.70815 16.3683 5.28097 16.1686 4.49687 15.195C3.81543 14.3499 3.81543 13.1969 3.81543 11.6016L4.66158 11.5734H3.81543C3.81543 8.33549 4.01964 6.77856 8.6103 6.77856C13.201 6.77856 13.4052 8.33549 13.4052 11.5734C13.4052 13.1958 13.4052 14.3499 12.7237 15.195C11.9396 16.1686 10.5125 16.3683 8.6103 16.3683Z" fill="#9E9E9E"/>
</svg>
