<svg width="33" height="33" viewBox="0 0 33 33" fill="none" xmlns="http://www.w3.org/2000/svg">
<path d="M13.7268 4.38179C14.3894 1.6504 18.2749 1.6504 18.9376 4.38179C19.037 4.79212 19.2319 5.17318 19.5064 5.49395C19.7809 5.81472 20.1273 6.06613 20.5174 6.22773C20.9074 6.38933 21.3301 6.45655 21.7511 6.42391C22.172 6.39127 22.5793 6.25971 22.9398 6.03992C25.3398 4.57778 28.0883 7.32473 26.6262 9.72636C26.4067 10.0867 26.2754 10.4937 26.2428 10.9144C26.2102 11.335 26.2774 11.7574 26.4388 12.1472C26.6002 12.5371 26.8513 12.8833 27.1717 13.1578C27.4921 13.4323 27.8728 13.6273 28.2828 13.727C31.0142 14.3896 31.0142 18.2752 28.2828 18.9378C27.8724 19.0372 27.4914 19.2321 27.1706 19.5066C26.8498 19.7812 26.5984 20.1276 26.4368 20.5176C26.2752 20.9077 26.208 21.3304 26.2406 21.7513C26.2733 22.1722 26.4049 22.5795 26.6246 22.94C28.0868 25.3401 25.3398 28.0886 22.9382 26.6264C22.5779 26.407 22.1708 26.2756 21.7502 26.243C21.3295 26.2105 20.9071 26.2776 20.5173 26.4391C20.1275 26.6005 19.7813 26.8516 19.5068 27.172C19.2323 27.4924 19.0373 27.873 18.9376 28.283C18.2749 31.0144 14.3894 31.0144 13.7268 28.283C13.6273 27.8727 13.4324 27.4916 13.1579 27.1709C12.8834 26.8501 12.537 26.5987 12.147 26.4371C11.7569 26.2755 11.3342 26.2083 10.9133 26.2409C10.4923 26.2735 10.085 26.4051 9.72456 26.6249C7.32448 28.087 4.57598 25.3401 6.03812 22.9384C6.25759 22.5781 6.38895 22.1711 6.42151 21.7504C6.45407 21.3298 6.38692 20.9074 6.22551 20.5176C6.06409 20.1277 5.81298 19.7815 5.49257 19.507C5.17217 19.2325 4.79151 19.0375 4.38155 18.9378C1.65016 18.2752 1.65016 14.3896 4.38155 13.727C4.79188 13.6276 5.17294 13.4327 5.4937 13.1582C5.81447 12.8836 6.06589 12.5372 6.22749 12.1472C6.38909 11.7571 6.4563 11.3344 6.42367 10.9135C6.39103 10.4926 6.25946 10.0853 6.03967 9.7248C4.57754 7.32473 7.32448 4.57623 9.72611 6.03836C11.2754 6.98408 13.2975 6.14724 13.7268 4.38179Z" stroke="#141718" stroke-width="3.06231" stroke-linecap="round" stroke-linejoin="round"/>
<path d="M20.9988 16.3324C20.9988 17.57 20.5071 18.7569 19.632 19.632C18.7569 20.5071 17.57 20.9988 16.3324 20.9988C15.0948 20.9988 13.9079 20.5071 13.0328 19.632C12.1577 18.7569 11.666 17.57 11.666 16.3324C11.666 15.0948 12.1577 13.9079 13.0328 13.0328C13.9079 12.1577 15.0948 11.666 16.3324 11.666C17.57 11.666 18.7569 12.1577 19.632 13.0328C20.5071 13.9079 20.9988 15.0948 20.9988 16.3324V16.3324Z" stroke="#141718" stroke-width="4.08309" stroke-linecap="round" stroke-linejoin="round"/>
</svg>
