<svg width="40" height="40" viewBox="0 0 40 40" fill="none" xmlns="http://www.w3.org/2000/svg">
<path d="M26.9125 17.1875H35.9525C36.8075 17.1875 37.5 17.8775 37.5 18.73V26.95C37.4993 27.6959 37.3518 28.4344 37.0657 29.1233C36.7796 29.8121 36.3607 30.4379 35.8328 30.9649C35.3049 31.4919 34.6784 31.9097 33.989 32.1945C33.2996 32.4794 32.5609 32.6257 31.815 32.625H31.79C31.0441 32.6257 30.3053 32.4794 29.616 32.1945C28.9266 31.9097 28.3 31.4919 27.7721 30.9649C27.2442 30.4379 26.8253 29.8121 26.5393 29.1233C26.2532 28.4344 26.1056 27.6959 26.105 26.95V17.9975C26.105 17.55 26.4675 17.1875 26.9125 17.1875ZM33.025 15.5625C35.045 15.5625 36.685 13.925 36.685 11.9075C36.685 9.8875 35.045 8.25 33.0225 8.25C31 8.25 29.36 9.8875 29.36 11.9075C29.36 13.925 31 15.5625 33.0225 15.5625H33.025Z" fill="#5059C9"/>
<path d="M21.6274 15.5625C22.3217 15.5635 23.0093 15.4277 23.6511 15.1628C24.2928 14.898 24.8761 14.5093 25.3676 14.019C25.8591 13.5287 26.2491 12.9463 26.5155 12.3052C26.7818 11.6641 26.9193 10.9768 26.9199 10.2825C26.9196 9.58784 26.7823 8.90005 26.516 8.25848C26.2496 7.61691 25.8594 7.03415 25.3676 6.54353C24.8758 6.0529 24.2921 5.66404 23.6499 5.39919C23.0077 5.13434 22.3196 4.99869 21.6249 5.00001C20.9309 4.99935 20.2435 5.1354 19.6021 5.40039C18.9606 5.66538 18.3776 6.05412 17.8864 6.54441C17.3952 7.03471 17.0053 7.61695 16.7391 8.25791C16.4729 8.89886 16.3356 9.58597 16.3349 10.28C16.3349 13.1975 18.7024 15.5625 21.6249 15.5625H21.6274ZM28.6824 17.1875H13.7574C13.3527 17.1973 12.9685 17.3674 12.6891 17.6604C12.4097 17.9534 12.258 18.3453 12.2674 18.75V28.125C12.2131 30.5549 13.1254 32.907 14.8039 34.6648C16.4825 36.4226 18.7901 37.4423 21.2199 37.5C23.6502 37.443 25.9584 36.4235 27.6375 34.6657C29.3166 32.9078 30.2293 30.5553 30.1749 28.125V18.75C30.1796 18.5494 30.1447 18.3498 30.0722 18.1627C29.9997 17.9756 29.891 17.8046 29.7524 17.6595C29.6138 17.5144 29.448 17.3981 29.2644 17.3171C29.0808 17.2361 28.883 17.1921 28.6824 17.1875Z" fill="#7B83EB"/>
<path opacity="0.1" d="M22.0351 17.1875V30.325C22.0331 30.7193 21.8754 31.0969 21.5963 31.3755C21.3172 31.6541 20.9394 31.8112 20.5451 31.8125H12.9826C12.5094 30.6398 12.2658 29.3871 12.2651 28.1225V18.75C12.2604 18.5495 12.2954 18.3501 12.3679 18.1631C12.4404 17.9762 12.5491 17.8053 12.6877 17.6604C12.8264 17.5155 12.9922 17.3994 13.1758 17.3187C13.3594 17.2379 13.5571 17.1942 13.7576 17.19H22.0326L22.0351 17.1875Z" fill="black"/>
<path opacity="0.2" d="M21.2199 17.1876V31.1376C21.2167 31.5315 21.0586 31.9083 20.7798 32.1866C20.501 32.465 20.1239 32.6224 19.7299 32.6251H13.3674C13.0863 32.1094 12.8625 31.5645 12.6999 31.0001C12.4156 30.0682 12.2707 29.0994 12.2699 28.1251V18.7451C12.2653 18.5448 12.3002 18.3455 12.3725 18.1587C12.4449 17.9719 12.5534 17.8012 12.6917 17.6564C12.8301 17.5115 12.9957 17.3953 13.1789 17.3144C13.3622 17.2336 13.5597 17.1896 13.7599 17.1851H21.2224L21.2199 17.1876Z" fill="black"/>
<path opacity="0.2" d="M21.2199 17.1876V29.5126C21.2167 29.9065 21.0586 30.2833 20.7798 30.5616C20.501 30.84 20.1239 30.9974 19.7299 31.0001H12.6999C12.4156 30.0682 12.2707 29.0994 12.2699 28.1251V18.7451C12.2653 18.5448 12.3002 18.3455 12.3725 18.1587C12.4449 17.9719 12.5534 17.8012 12.6917 17.6564C12.8301 17.5115 12.9957 17.3953 13.1789 17.3144C13.3622 17.2336 13.5597 17.1896 13.7599 17.1851H21.2224L21.2199 17.1876Z" fill="black"/>
<path opacity="0.2" d="M20.4075 17.1876V29.5126C20.4042 29.9065 20.2461 30.2833 19.9673 30.5616C19.6885 30.84 19.3114 30.9974 18.9175 31.0001H12.6975C12.4132 30.0682 12.2683 29.0994 12.2675 28.1251V18.7451C12.2629 18.5448 12.2977 18.3455 12.3701 18.1587C12.4425 17.9719 12.5509 17.8012 12.6893 17.6564C12.8277 17.5115 12.9932 17.3953 13.1765 17.3144C13.3598 17.2336 13.5572 17.1896 13.7575 17.1851L20.4075 17.1876Z" fill="black"/>
<path opacity="0.1" d="M22.0349 12.9875V15.5475C21.8974 15.555 21.7674 15.5625 21.6274 15.5625C21.4899 15.5625 21.3599 15.555 21.2199 15.5475C20.1034 15.4615 19.043 15.0231 18.1916 14.2957C17.3402 13.5683 16.7417 12.5894 16.4824 11.5H20.5449C20.9388 11.5013 21.3163 11.658 21.5953 11.9361C21.8743 12.2142 22.0323 12.5911 22.0349 12.985V12.9875Z" fill="black"/>
<path opacity="0.2" d="M21.2201 13.7999V15.5474C20.2488 15.4731 19.3169 15.132 18.5273 14.5616C17.7376 13.9911 17.1209 13.2137 16.7451 12.3149H19.7326C20.1261 12.3169 20.5029 12.4739 20.7814 12.7519C21.0599 13.0299 21.2175 13.4065 21.2201 13.7999Z" fill="black"/>
<path opacity="0.2" d="M21.2201 13.7999V15.5474C20.2488 15.4731 19.3169 15.132 18.5273 14.5616C17.7376 13.9911 17.1209 13.2137 16.7451 12.3149H19.7326C20.1261 12.3169 20.5029 12.4739 20.7814 12.7519C21.0599 13.0299 21.2175 13.4065 21.2201 13.7999Z" fill="black"/>
<path opacity="0.2" d="M20.4076 13.8V15.4175C19.5954 15.2257 18.8402 14.8444 18.2036 14.3047C17.567 13.765 17.0672 13.0824 16.7451 12.3125H18.9201C19.314 12.3145 19.6912 12.4718 19.9698 12.7504C20.2483 13.0289 20.4056 13.4061 20.4076 13.8Z" fill="black"/>
<path d="M3.9925 12.3125H18.915C19.74 12.3125 20.4075 12.98 20.4075 13.8025V28.6975C20.4075 28.8934 20.3689 29.0873 20.2938 29.2683C20.2188 29.4492 20.1088 29.6136 19.9702 29.752C19.8316 29.8904 19.667 30.0001 19.486 30.0748C19.3049 30.1495 19.1109 30.1878 18.915 30.1875H3.99C3.79433 30.1875 3.60058 30.149 3.4198 30.0741C3.23903 29.9992 3.07477 29.8894 2.93641 29.7511C2.79805 29.6127 2.6883 29.4485 2.61342 29.2677C2.53854 29.0869 2.5 28.8932 2.5 28.6975V13.8025C2.5 12.9775 3.1675 12.3125 3.9925 12.3125Z" fill="url(#paint0_linear_237_602)"/>
<path d="M15.3799 17.9825H12.3974V26.09H10.4974V17.9825H7.5249V16.4075H15.3774L15.3799 17.9825Z" fill="white"/>
<defs>
<linearGradient id="paint0_linear_237_602" x1="5.61" y1="11.15" x2="17.265" y2="31.37" gradientUnits="userSpaceOnUse">
<stop stop-color="#5A62C3"/>
<stop offset="0.5" stop-color="#4D55BD"/>
<stop offset="1" stop-color="#3940AB"/>
</linearGradient>
</defs>
</svg>
