<svg width="19" height="21" viewBox="0 0 19 21" fill="none" xmlns="http://www.w3.org/2000/svg">
<path d="M8.89348 8.81333C11.0511 8.81333 12.8002 7.06426 12.8002 4.90667C12.8002 2.74907 11.0511 1 8.89348 1C6.73589 1 4.98682 2.74907 4.98682 4.90667C4.98682 7.06426 6.73589 8.81333 8.89348 8.81333Z" fill="white" fill-opacity="0.67" stroke="#141718" stroke-width="2" stroke-linecap="round" stroke-linejoin="round"/>
<path d="M1 19.6668V17.4402C1 14.8402 3.10667 12.7468 5.69334 12.7468H12.72C15.32 12.7468 17.4133 14.8535 17.4133 17.4402V19.6668" fill="white" fill-opacity="0.67"/>
<path d="M1 19.6668V17.4402C1 14.8402 3.10667 12.7468 5.69334 12.7468H12.72C15.32 12.7468 17.4133 14.8535 17.4133 17.4402V19.6668" stroke="#141718" stroke-width="2" stroke-linecap="round" stroke-linejoin="round"/>
</svg>
